PathFileType	4	(X/Y/Z)	s04c0103.trc
DataRate	CameraRate	NumFrames	NumMarkers	Units	OrigDataRate	OrigDataStartFrame	OrigNumFrames
200	200	6	50	mm	200	1000	2000
Frame#	Time	racr			lacr			c7			jug			rlel			rdr			llel			ldr			s2			lic			ric			lasi			rasi			rpsi			lpsi			rgt			lgt			rth1			rth2			rth3			rth4			rlfc			rmfc			rsh1			rsh2			rsh3			rsh4			rlmal			rmmal			rcal			rtoe			rmt5			lth1			lth2			lth4			lth3			llfc			lmfc			lsh1			lsh2			lsh3			lsh4			llmal			lmmal			lcal			ltoe			lmt5			SBIKE			LBIKE			RBIKE			
		X1	Y1	Z1	X2	Y2	Z2	X3	Y3	Z3	X4	Y4	Z4	X5	Y5	Z5	X6	Y6	Z6	X7	Y7	Z7	X8	Y8	Z8	X9	Y9	Z9	X10	Y10	Z10	X11	Y11	Z11	X12	Y12	Z12	X13	Y13	Z13	X14	Y14	Z14	X15	Y15	Z15	X16	Y16	Z16	X17	Y17	Z17	X18	Y18	Z18	X19	Y19	Z19	X20	Y20	Z20	X21	Y21	Z21	X22	Y22	Z22	X23	Y23	Z23	X24	Y24	Z24	X25	Y25	Z25	X26	Y26	Z26	X27	Y27	Z27	X28	Y28	Z28	X29	Y29	Z29	X30	Y30	Z30	X31	Y31	Z31	X32	Y32	Z32	X33	Y33	Z33	X34	Y34	Z34	X35	Y35	Z35	X36	Y36	Z36	X37	Y37	Z37	X38	Y38	Z38	X39	Y39	Z39	X40	Y40	Z40	X41	Y41	Z41	X42	Y42	Z42	X43	Y43	Z43	X44	Y44	Z44	X45	Y45	Z45	X46	Y46	Z46	X47	Y47	Z47	X48	Y48	Z48	X49	Y49	Z49	X50	Y50	Z50	
1000	5.0000	495.330537	1339.357287	-155.171645	496.377023	1328.344862	-425.578522	479.464736	1396.611099	-295.033356	427.678230	1244.419235	-297.542790	471.885732	1069.564487	15.291207	688.358276	914.237435	-104.494575	460.706321	1072.670320	-571.683861	687.583933	916.381312	-491.428039	-75.573535	1155.508049	-297.228303	73.624849	1180.177951	-451.617811	72.164443	1178.965447	-129.344287	119.972150	1139.625321	-405.216217	123.725011	1139.008772	-175.220106	-55.790654	1202.926423	-250.795180	-54.474901	1204.992817	-329.514404	34.278342	1115.400461	-111.428981	54.524505	1079.969448	-470.874761	155.402421	1025.144943	-81.144753	234.769006	986.414147	-78.948641	285.869182	919.204201	-67.030580	256.380639	1010.325822	-97.745997	370.691563	805.926087	-76.461376	369.605661	785.647932	-191.091200	276.699085	726.263445	-64.643267	226.940507	653.314988	-90.741040	149.101551	622.212357	-109.731282	254.511851	633.136362	-110.741898	41.521604	519.783161	-134.352158	77.485510	511.619912	-214.647908	-23.916198	535.279139	-186.028210	190.906607	323.816831	-151.687668	118.363811	351.029053	-106.324314	114.301781	1005.513793	-481.546985	191.235131	964.695876	-480.444705	215.427311	991.295323	-473.640590	238.508876	889.549439	-476.664542	342.951503	763.571573	-454.675030	364.344957	742.560005	-342.465172	339.113479	638.648644	-475.939335	342.009371	553.997920	-456.143556	305.015557	473.741225	-458.540101	367.423816	551.691974	-425.268781	271.242303	329.671913	-460.374341	261.806046	329.214361	-370.619639	190.518521	296.781580	-425.564048	491.263909	317.158073	-412.830524	429.211858	272.066680	-478.081993	-184.598902	930.267750	-287.049745	-17.466208	78.846764	-485.618761	-17.492650	79.135877	-84.854482	
1001	5.0050	495.493414	1340.985995	-154.358277	496.788181	1328.893434	-424.141579	480.299649	1397.538479	-293.230596	427.366157	1245.736465	-295.406495	472.505692	1070.593225	14.758111	688.430549	914.247162	-104.984283	462.833505	1074.116262	-572.219340	688.321056	915.856251	-491.517224	-75.188521	1156.671400	-298.737405	74.846692	1180.606610	-452.640890	73.062824	1180.211467	-130.305323	121.258352	1140.004921	-406.347599	124.555085	1140.144638	-176.457658	-54.468873	1203.751820	-251.499108	-53.411197	1205.775915	-329.167340	35.279118	1117.045418	-112.134363	55.201614	1080.000691	-471.348482	156.587242	1027.951681	-82.065693	236.716901	990.778460	-79.263065	288.956299	924.636150	-67.048520	257.951896	1015.115848	-98.156533	375.636478	813.249163	-76.983400	374.052146	792.194669	-191.638415	281.516046	734.315770	-65.265344	231.206899	661.807609	-91.432208	153.078837	631.441057	-110.459248	258.581070	641.357382	-111.550953	44.726974	530.178724	-135.248984	81.496150	522.111460	-215.487269	-20.996328	545.580469	-186.920053	194.073049	334.681549	-152.176640	121.767639	361.930007	-106.625908	113.609763	1003.881333	-482.348861	189.432590	961.028194	-481.342447	214.315390	986.977431	-474.606830	234.670475	884.585928	-477.543440	335.996098	755.602255	-456.000588	358.021954	735.081963	-343.740327	332.764598	630.478010	-477.280103	336.652378	545.888847	-457.522506	300.515864	465.173431	-459.762905	362.391634	543.692607	-426.395499	268.826065	320.365646	-461.151873	258.745381	320.219494	-371.838591	187.869078	288.298702	-426.608214	488.863425	305.651020	-412.248347	426.616236	261.251368	-477.807017	-184.653288	930.322479	-287.087575	-17.454458	78.861346	-485.627696	-17.465104	79.165760	-84.868749	
1002	5.0100	495.692937	1342.701266	-153.425457	498.253014	1330.247118	-423.191656	481.496076	1398.506368	-291.738630	428.100023	1246.863245	-293.699423	473.092238	1071.779393	14.303850	688.457320	914.337514	-105.183050	464.984477	1075.968853	-572.961697	689.183943	915.480769	-491.594137	-73.949732	1158.469366	-299.447789	76.210516	1181.172953	-453.710361	73.960417	1181.532854	-131.371923	122.659802	1140.467516	-407.461662	125.319462	1141.645174	-177.564278	-53.385888	1204.941726	-252.156964	-52.306571	1206.805479	-329.784503	36.156458	1119.149717	-112.858634	55.754470	1079.845834	-471.799739	157.764621	1031.203968	-83.005457	238.553997	995.652015	-79.925904	291.901461	930.363303	-67.518693	259.475696	1020.198838	-98.785743	380.500457	820.888916	-77.544389	379.668288	801.404530	-192.150907	286.471906	742.531409	-66.043307	235.562945	670.537320	-92.234906	157.215244	640.740916	-111.296977	262.756449	650.001362	-112.488445	48.296048	540.304010	-136.183194	84.022517	531.904780	-216.780675	-17.616377	555.572972	-187.715615	197.992603	345.542391	-152.681588	125.866579	373.210672	-106.596657	112.842940	1002.235136	-483.214715	187.404114	957.326281	-482.344146	213.016189	982.557379	-475.640330	230.524220	879.683434	-478.587558	328.679662	747.820236	-457.372854	350.963087	727.085551	-345.183715	325.692634	622.324498	-478.650347	330.579137	537.873875	-458.816107	295.252956	456.740687	-460.959933	356.463194	536.410512	-428.278566	265.800795	311.424133	-461.855981	255.878505	310.905278	-372.417020	184.670499	280.132336	-427.530718	485.802193	294.348816	-411.687803	423.377332	250.565355	-477.561964	-184.723085	930.341420	-287.195282	-17.435633	78.875522	-485.654329	-17.429385	79.182609	-84.892430	
1003	5.0150	495.879305	1344.470964	-152.512113	499.721135	1331.859581	-422.151501	482.771143	1399.586791	-290.393400	428.722646	1248.172381	-292.148366	473.656301	1072.994798	13.990766	688.684357	914.665352	-105.418313	467.402965	1077.986407	-573.282038	690.173044	915.091770	-491.563905	-72.576869	1159.719537	-300.408779	77.607873	1181.706478	-454.605477	74.600954	1183.230489	-132.390938	123.970298	1140.966383	-408.356095	125.993494	1143.464738	-178.539260	-49.351609	1205.391985	-255.328221	-51.065473	1207.907301	-330.302017	36.909366	1121.645488	-113.601605	56.266842	1079.562317	-472.223538	158.875484	1034.808306	-83.917918	240.423683	1000.802957	-80.817604	295.099228	936.609954	-68.359882	260.871304	1025.976805	-99.467345	385.416801	828.856911	-78.305918	385.307222	809.255547	-193.288210	291.279413	751.179567	-66.933230	240.171720	679.375004	-93.087530	161.574307	650.005901	-112.218323	265.637616	658.712879	-113.919473	52.096150	550.011465	-137.307301	87.656076	541.591663	-217.923293	-13.864203	565.232639	-188.612076	202.592464	356.225939	-153.196910	130.416649	383.580239	-107.174646	112.031488	1000.702990	-484.023209	185.253930	953.684470	-483.652061	211.529054	978.287694	-476.975901	225.944727	874.644729	-479.498259	320.899398	740.352694	-458.784422	343.494101	719.417297	-346.583674	318.108006	614.379261	-480.000707	323.917894	530.035370	-460.190582	289.422857	448.491544	-461.928960	350.208252	528.605765	-429.930215	262.119356	302.685245	-462.417649	251.629669	302.412367	-373.449266	180.787327	272.402252	-428.234615	482.150649	283.328632	-411.229115	419.422872	240.227689	-477.396211	-184.643779	930.345215	-287.085288	-17.400672	78.897717	-485.647985	-17.412098	79.213109	-84.902238	
1004	5.0200	496.168315	1346.226084	-151.511560	501.109726	1333.671344	-420.996127	483.923922	1400.732990	-289.040485	429.524097	1249.442273	-290.619932	474.268597	1073.996494	13.707718	689.094301	915.117642	-106.067487	469.780042	1080.126344	-573.251373	691.117086	914.778903	-491.359154	-71.404202	1161.327523	-301.395038	79.103007	1182.328405	-455.535323	75.089413	1185.159854	-133.461516	125.437972	1141.494373	-409.281588	126.562377	1145.414659	-179.497071	-47.846836	1207.538147	-256.953936	-49.356366	1209.290778	-331.271753	37.578695	1124.579947	-114.383414	56.676994	1079.130180	-472.660951	159.854508	1038.623192	-84.886669	242.106499	1006.374798	-81.841160	298.262993	943.524815	-69.383276	262.452576	1032.906342	-99.460336	390.578152	837.172494	-79.391088	389.929145	817.083456	-194.150586	296.342840	759.869031	-67.969823	244.853240	688.157618	-94.187129	166.273021	659.212625	-113.142135	271.157712	667.737456	-114.585362	56.557910	559.524012	-138.319455	91.867811	551.150367	-219.020726	-9.647412	574.448346	-189.498680	207.807084	366.636473	-153.662433	135.665417	393.903571	-107.581968	110.810525	999.208758	-485.426879	182.748288	950.141015	-484.734791	209.678101	973.938166	-478.048204	221.196111	869.948269	-480.380091	312.785481	733.300771	-460.143572	335.634773	711.476858	-348.240624	310.134944	606.560166	-481.279546	316.808540	522.443128	-461.347667	283.028504	440.500718	-462.855771	343.298472	521.092329	-431.218492	257.747785	294.204699	-462.807931	247.184445	294.069822	-374.192090	176.335611	264.866171	-428.617516	477.779660	272.595311	-410.838863	414.760829	230.239740	-477.125739	-184.574282	930.433246	-287.275059	-17.366409	78.956098	-485.664486	-17.403700	79.252070	-84.918937	
1005	5.0250	496.528839	1347.829190	-150.550180	502.382522	1335.674132	-419.732637	484.998441	1402.002178	-287.883064	430.309907	1250.815366	-289.451620	474.913377	1075.071911	13.742442	689.508607	915.609302	-106.225172	472.079718	1082.401610	-573.233390	692.138890	914.549534	-491.127049	-70.293435	1163.021469	-302.425189	80.795057	1183.153712	-456.555329	75.402714	1187.182768	-134.483322	126.798608	1141.927542	-409.786542	127.083120	1147.616913	-180.308224	-46.750293	1209.886684	-258.662828	-47.486845	1211.016865	-332.863334	38.254531	1128.021269	-114.790111	56.896293	1078.774744	-473.122638	160.722485	1042.568450	-86.082916	243.734722	1012.352408	-82.927936	301.336908	950.823300	-70.551008	263.524610	1039.280437	-100.446965	396.055866	845.834875	-80.631283	395.043745	825.465541	-195.319627	301.554936	768.735240	-69.153049	249.871451	697.154527	-95.195614	171.249936	668.301953	-114.158875	276.088085	676.587200	-115.681012	61.476066	568.785308	-139.165462	96.537142	560.314692	-220.034077	-5.024278	583.398211	-190.333229	213.596740	376.787533	-154.151739	141.551517	403.897221	-107.978053	109.410238	997.719615	-486.446702	179.903773	946.567337	-485.686482	207.619852	969.604746	-479.239210	216.165920	865.413546	-481.380622	304.309399	726.368349	-461.535051	327.713700	704.567675	-349.246451	301.749889	599.035168	-482.383302	309.773910	515.568898	-462.955609	276.212899	432.787442	-463.667127	335.806712	513.789792	-432.109303	252.790004	286.114488	-463.115112	242.123631	286.234519	-374.697627	171.301981	257.958146	-428.879503	472.860893	262.262288	-410.546518	409.476656	220.575767	-476.910893	-184.544157	930.505673	-287.790849	-17.348707	78.980654	-485.653273	-17.394122	79.249183	-84.922536	
